<svg
  viewBox="-25 -25 250 250"
  xmlns="http://www.w3.org/2000/svg"
  id="morph-blobs"
  aria-hidden="true"
>
  <g transform="translate(100 100)">
    <path d="M43,-25.8C55.6,-3.1,65.5,20.2,57.9,34.9C50.3,49.6,25.1,55.6,-0.9,56.1C-27,56.6,-53.9,51.7,-68.1,33.2C-82.3,14.8,-83.7,-17.2,-70.2,-40.4C-56.7,-63.6,-28.4,-78.1,-6.6,-74.3C15.2,-70.5,30.5,-48.4,43,-25.8Z">
      <animate
        attributeName="d"
        dur="24s"
        repeatCount="indefinite"
        keyTimes="0; 0.5; 1;"
        values="M43,-25.8C55.6,-3.1,65.5,20.2,57.9,34.9C50.3,49.6,25.1,55.6,-0.9,56.1C-27,56.6,-53.9,51.7,-68.1,33.2C-82.3,14.8,-83.7,-17.2,-70.2,-40.4C-56.7,-63.6,-28.4,-78.1,-6.6,-74.3C15.2,-70.5,30.5,-48.4,43,-25.8Z; M62.7,-37C74.8,-15.3,73.6,13.3,60.9,35.4C48.3,57.4,24.1,73.1,4.1,70.7C-15.9,68.3,-31.8,47.9,-44.4,25.8C-57,3.8,-66.4,-20,-58.4,-39.3C-50.5,-58.7,-25.2,-73.6,0,-73.6C25.3,-73.6,50.6,-58.7,62.7,-37Z; M43,-25.8C55.6,-3.1,65.5,20.2,57.9,34.9C50.3,49.6,25.1,55.6,-0.9,56.1C-27,56.6,-53.9,51.7,-68.1,33.2C-82.3,14.8,-83.7,-17.2,-70.2,-40.4C-56.7,-63.6,-28.4,-78.1,-6.6,-74.3C15.2,-70.5,30.5,-48.4,43,-25.8Z;"
      />
      <animateMotion
        dur="34s"
        repeatCount="indefinite"
        path="M35.3,23.2C26.8,35.1,-12,32.2,-23,18.9C-33.9,5.7,-17,-18.1,2.5,-16.6C21.9,-15.2,43.8,11.3,35.3,23.2Z"
      />
      <animateTransform
        attributeName="transform"
        attributeType="XML"
        type="rotate"
        from="0"
        to="360"
        dur="36s"
        repeatCount="indefinite"
      />
    </path>
    <path d="M52.6,-35.9C61.7,-14.7,57.9,8.3,47,30.6C36.1,52.9,18.1,74.6,-1.7,75.6C-21.4,76.5,-42.7,56.8,-57,32.5C-71.2,8.3,-78.2,-20.5,-67.5,-42.6C-56.8,-64.6,-28.4,-80,-3.3,-78.1C21.8,-76.2,43.6,-57,52.6,-35.9Z">
      <animate
        attributeName="d"
        dur="28s"
        repeatCount="indefinite"
        keyTimes="0; 0.5; 1;"
        values="M52.6,-35.9C61.7,-14.7,57.9,8.3,47,30.6C36.1,52.9,18.1,74.6,-1.7,75.6C-21.4,76.5,-42.7,56.8,-57,32.5C-71.2,8.3,-78.2,-20.5,-67.5,-42.6C-56.8,-64.6,-28.4,-80,-3.3,-78.1C21.8,-76.2,43.6,-57,52.6,-35.9Z; M54.4,-30.3C65.9,-11.5,67.4,14.2,56.7,30.6C46,47,23,54.2,0.3,54C-22.5,53.9,-45,46.4,-52.4,31.9C-59.8,17.4,-52.2,-4.2,-41,-22.9C-29.7,-41.6,-14.9,-57.4,3.3,-59.3C21.4,-61.2,42.9,-49.2,54.4,-30.3Z; M52.6,-35.9C61.7,-14.7,57.9,8.3,47,30.6C36.1,52.9,18.1,74.6,-1.7,75.6C-21.4,76.5,-42.7,56.8,-57,32.5C-71.2,8.3,-78.2,-20.5,-67.5,-42.6C-56.8,-64.6,-28.4,-80,-3.3,-78.1C21.8,-76.2,43.6,-57,52.6,-35.9Z;"
      />
      <animateMotion
        dur="32s"
        repeatCount="indefinite"
        path="M31.4,10.3C27,25.8,0.2,20.5,-8.7,2.5C-17.7,-15.6,-8.8,-46.5,4.5,-43.9C17.9,-41.3,35.8,-5.1,31.4,10.3Z"
      />
      <animateTransform
        attributeName="transform"
        attributeType="XML"
        type="rotate"
        from="0"
        to="-360"
        dur="24s"
        repeatCount="indefinite"
      />
    </path>
    <path d="M58.7,-26.6C72.4,-10.2,77.2,18.6,66,40.7C54.7,62.8,27.4,78.2,1.8,77.2C-23.9,76.2,-47.7,58.8,-59.5,36.4C-71.3,13.9,-71,-13.4,-59.1,-28.8C-47.1,-44.1,-23.6,-47.4,-0.5,-47.1C22.5,-46.8,45,-42.9,58.7,-26.6Z">
      <animate
        attributeName="d"
        dur="34s"
        repeatCount="indefinite"
        keyTimes="0; 0.5; 1;"
        values="M58.7,-26.6C72.4,-10.2,77.2,18.6,66,40.7C54.7,62.8,27.4,78.2,1.8,77.2C-23.9,76.2,-47.7,58.8,-59.5,36.4C-71.3,13.9,-71,-13.4,-59.1,-28.8C-47.1,-44.1,-23.6,-47.4,-0.5,-47.1C22.5,-46.8,45,-42.9,58.7,-26.6Z; M42.4,-25.8C55.5,-1.7,67.1,21.9,59.8,37.5C52.5,53.1,26.2,60.7,2.2,59.4C-21.8,58.1,-43.6,48,-51.8,31.9C-59.9,15.8,-54.4,-6.2,-43.4,-29C-32.5,-51.8,-16.3,-75.5,-0.8,-75C14.6,-74.5,29.2,-49.9,42.4,-25.8Z; M58.7,-26.6C72.4,-10.2,77.2,18.6,66,40.7C54.7,62.8,27.4,78.2,1.8,77.2C-23.9,76.2,-47.7,58.8,-59.5,36.4C-71.3,13.9,-71,-13.4,-59.1,-28.8C-47.1,-44.1,-23.6,-47.4,-0.5,-47.1C22.5,-46.8,45,-42.9,58.7,-26.6Z"
      />
      <animateMotion
        dur="28s"
        repeatCount="indefinite"
        path="M20.4,16.9C11.9,26.7,-19.8,28.2,-27.1,19.2C-34.3,10.2,-17.2,-9.4,-1.3,-10.1C14.5,-10.9,29,7.1,20.4,16.9Z"
      />
      <animateTransform
        attributeName="transform"
        attributeType="XML"
        type="rotate"
        from="0"
        to="360"
        dur="30s"
        repeatCount="indefinite"
      />
    </path>
  </g>
</svg>
